<mxfile host="app.diagrams.net" modified="2023-12-31T11:14:59.639Z" agent="Mozilla/5.0 (Windows NT 10.0; Win64; x64) AppleWebKit/537.36 (KHTML, like Gecko) Chrome/120.0.0.0 Safari/537.36" etag="TPzKYXVihyrSwZfIte-u" version="22.1.16" type="device">
  <diagram name="Pagina-1" id="DVc7VTB0FPkBOh6ckJzu">
    <mxGraphModel dx="613" dy="653" grid="1" gridSize="10" guides="1" tooltips="1" connect="1" arrows="1" fold="1" page="1" pageScale="1" pageWidth="827" pageHeight="1169" math="0" shadow="0">
      <root>
        <mxCell id="0" />
        <mxCell id="1" parent="0" />
        <mxCell id="jJ-hoMrN5up2MkBIS1do-3" style="rounded=0;orthogonalLoop=1;jettySize=auto;html=1;exitX=0;exitY=1;exitDx=0;exitDy=0;entryX=1;entryY=0;entryDx=0;entryDy=0;" parent="1" source="jJ-hoMrN5up2MkBIS1do-1" target="jJ-hoMrN5up2MkBIS1do-2" edge="1">
          <mxGeometry relative="1" as="geometry" />
        </mxCell>
        <mxCell id="jJ-hoMrN5up2MkBIS1do-16" value="&lt;font style=&quot;font-size: 24px;&quot;&gt;Dust_lr&lt;/font&gt;" style="edgeLabel;html=1;align=center;verticalAlign=middle;resizable=0;points=[];" parent="jJ-hoMrN5up2MkBIS1do-3" vertex="1" connectable="0">
          <mxGeometry x="0.1272" y="1" relative="1" as="geometry">
            <mxPoint x="12" y="-8" as="offset" />
          </mxGeometry>
        </mxCell>
        <mxCell id="jJ-hoMrN5up2MkBIS1do-6" style="rounded=0;orthogonalLoop=1;jettySize=auto;html=1;exitX=1;exitY=1;exitDx=0;exitDy=0;entryX=0;entryY=0;entryDx=0;entryDy=0;" parent="1" source="jJ-hoMrN5up2MkBIS1do-1" target="jJ-hoMrN5up2MkBIS1do-5" edge="1">
          <mxGeometry relative="1" as="geometry" />
        </mxCell>
        <mxCell id="jJ-hoMrN5up2MkBIS1do-21" value="&lt;font style=&quot;font-size: 24px;&quot;&gt;Dust_gar&lt;/font&gt;" style="edgeLabel;html=1;align=center;verticalAlign=middle;resizable=0;points=[];" parent="jJ-hoMrN5up2MkBIS1do-6" vertex="1" connectable="0">
          <mxGeometry x="-0.2466" y="-1" relative="1" as="geometry">
            <mxPoint x="20" y="7" as="offset" />
          </mxGeometry>
        </mxCell>
        <mxCell id="jJ-hoMrN5up2MkBIS1do-1" value="&lt;font style=&quot;font-size: 24px;&quot;&gt;Goal&lt;/font&gt;" style="ellipse;whiteSpace=wrap;html=1;aspect=fixed;" parent="1" vertex="1">
          <mxGeometry x="230" y="200" width="80" height="80" as="geometry" />
        </mxCell>
        <mxCell id="jJ-hoMrN5up2MkBIS1do-10" style="rounded=0;orthogonalLoop=1;jettySize=auto;html=1;exitX=0.5;exitY=1;exitDx=0;exitDy=0;entryX=0.5;entryY=0;entryDx=0;entryDy=0;" parent="1" target="jJ-hoMrN5up2MkBIS1do-9" edge="1">
          <mxGeometry relative="1" as="geometry">
            <mxPoint x="140" y="390" as="sourcePoint" />
            <mxPoint x="130" y="450" as="targetPoint" />
          </mxGeometry>
        </mxCell>
        <mxCell id="jJ-hoMrN5up2MkBIS1do-26" value="&lt;font style=&quot;font-size: 24px;&quot;&gt;Move&lt;/font&gt;" style="edgeLabel;html=1;align=center;verticalAlign=middle;resizable=0;points=[];" parent="jJ-hoMrN5up2MkBIS1do-10" vertex="1" connectable="0">
          <mxGeometry x="-0.0421" y="5" relative="1" as="geometry">
            <mxPoint y="6" as="offset" />
          </mxGeometry>
        </mxCell>
        <mxCell id="jJ-hoMrN5up2MkBIS1do-2" value="&lt;font style=&quot;font-size: 36px;&quot;&gt;C1&lt;/font&gt;" style="ellipse;whiteSpace=wrap;html=1;aspect=fixed;" parent="1" vertex="1">
          <mxGeometry x="100" y="320" width="80" height="80" as="geometry" />
        </mxCell>
        <mxCell id="jJ-hoMrN5up2MkBIS1do-35" style="rounded=0;orthogonalLoop=1;jettySize=auto;html=1;exitX=0.5;exitY=1;exitDx=0;exitDy=0;entryX=0.5;entryY=0;entryDx=0;entryDy=0;" parent="1" target="jJ-hoMrN5up2MkBIS1do-34" edge="1">
          <mxGeometry relative="1" as="geometry">
            <mxPoint x="413" y="380" as="sourcePoint" />
            <mxPoint x="413" y="470" as="targetPoint" />
          </mxGeometry>
        </mxCell>
        <mxCell id="jJ-hoMrN5up2MkBIS1do-36" value="&lt;font style=&quot;font-size: 24px;&quot;&gt;Move&lt;/font&gt;" style="edgeLabel;html=1;align=center;verticalAlign=middle;resizable=0;points=[];" parent="jJ-hoMrN5up2MkBIS1do-35" vertex="1" connectable="0">
          <mxGeometry x="0.1328" y="-1" relative="1" as="geometry">
            <mxPoint x="1" y="4" as="offset" />
          </mxGeometry>
        </mxCell>
        <mxCell id="jJ-hoMrN5up2MkBIS1do-5" value="&lt;font style=&quot;font-size: 36px;&quot;&gt;C2&lt;/font&gt;" style="ellipse;whiteSpace=wrap;html=1;aspect=fixed;" parent="1" vertex="1">
          <mxGeometry x="373" y="320" width="80" height="80" as="geometry" />
        </mxCell>
        <mxCell id="jJ-hoMrN5up2MkBIS1do-9" value="&lt;font style=&quot;font-size: 36px;&quot;&gt;G1&lt;/font&gt;" style="ellipse;whiteSpace=wrap;html=1;aspect=fixed;" parent="1" vertex="1">
          <mxGeometry x="100" y="460" width="80" height="80" as="geometry" />
        </mxCell>
        <mxCell id="jJ-hoMrN5up2MkBIS1do-34" value="&lt;font style=&quot;font-size: 36px;&quot;&gt;G2&lt;/font&gt;" style="ellipse;whiteSpace=wrap;html=1;aspect=fixed;" parent="1" vertex="1">
          <mxGeometry x="373" y="460" width="80" height="80" as="geometry" />
        </mxCell>
      </root>
    </mxGraphModel>
  </diagram>
</mxfile>
